<?xml version="1.0" standalone="no"?>
<!DOCTYPE svg PUBLIC "-//W3C//DTD SVG 20010904//EN"
 "http://www.w3.org/TR/2001/REC-SVG-20010904/DTD/svg10.dtd">
<svg version="1.0" xmlns="http://www.w3.org/2000/svg"
 width="150.000000pt" height="150.000000pt" viewBox="0 0 150.000000 150.000000"
 preserveAspectRatio="xMidYMid meet">
<metadata>
Created by potrace 1.10, written by Peter Selinger 2001-2011
</metadata>
<g transform="translate(0.000000,150.000000) scale(0.100000,-0.100000)"
fill="#155aa5" stroke="none">
<path d="M700 1249 c-30 -5 -93 -17 -139 -25 -202 -36 -339 -131 -391 -272
-47 -124 -35 -249 33 -348 46 -67 158 -146 257 -181 44 -15 80 -30 80 -33 0
-3 -52 -31 -115 -64 -203 -104 -170 -106 81 -6 l140 56 120 -17 c65 -10 156
-21 202 -25 l82 -7 0 45 0 45 -92 13 c-143 19 -143 19 -42 77 146 85 234 187
234 272 0 69 -61 101 -192 101 -75 0 -309 -37 -322 -50 -7 -7 30 -10 102 -10
160 0 212 -26 212 -106 0 -62 -86 -163 -183 -214 l-45 -24 -86 42 c-143 71
-193 156 -184 316 3 66 10 91 34 135 72 133 224 194 486 195 l138 1 0 32 c0
36 -3 37 -100 48 -110 11 -256 13 -310 4z"/>
<path d="M1080 410 l0 -80 45 0 c25 0 45 5 45 10 0 6 -16 10 -35 10 l-35 0 0
70 c0 40 -4 70 -10 70 -6 0 -10 -33 -10 -80z"/>
<path d="M1200 410 c0 -47 4 -80 10 -80 6 0 10 16 10 35 0 30 3 35 23 35 13 0
32 9 42 20 15 17 16 24 7 45 -10 21 -19 25 -52 25 l-40 0 0 -80z m77 54 c8
-22 -9 -48 -36 -52 -18 -3 -21 1 -21 32 0 32 3 36 25 36 15 0 28 -7 32 -16z"/>
<path d="M1330 410 c0 -47 4 -80 10 -80 6 0 10 33 10 80 0 47 -4 80 -10 80 -6
0 -10 -33 -10 -80z"/>
</g>
</svg>
