<?xml version="1.0" encoding="UTF-8"?>
<!-- Generator: Adobe Illustrator 18.0.0, SVG Export Plug-In . SVG Version: 6.00 Build 0)  -->
<!DOCTYPE svg PUBLIC "-//W3C//DTD SVG 1.1//EN" "http://www.w3.org/Graphics/SVG/1.1/DTD/svg11.dtd">
<svg xmlns="http://www.w3.org/2000/svg" xmlns:xlink="http://www.w3.org/1999/xlink" version="1.1" x="0px" y="0px" viewBox="0 0 38 38" xml:space="preserve">
<g id="Background">
	<circle fill="#44499C" cx="19" cy="19" r="18.1"/>
</g>
<g id="Layer_7">
	<g>
		<g>
			<g>
				<rect x="10.2" y="16.2" fill="#FFFFFF" width="3.8" height="0.7"/>
			</g>
		</g>
		<g>
			<g>
				<g>
					<polygon fill="none" points="16,16.4 19.1,16.4 19.1,14.1 14.9,14.1 14.2,14.1 13.6,14.1 12.2,14.1 9.5,14.1 9.5,27.8        19.1,27.8 19.1,25.1 19.1,25.1 16,25.1      "/>
					<polygon fill="none" points="21.9,11.5 14.9,11.5 14.9,12.7 15.5,12.7 15.5,12.1 18.2,12.1 18.2,12.7 18.6,12.7 18.6,12.1        21.3,12.1 21.3,13.1 20.5,13.1 20.5,13.7 21.3,13.7 21.3,14.7 20.5,14.7 20.5,15.3 21.3,15.3 21.3,16.3 20.5,16.3 20.5,16.4        21.9,16.4      "/>
					<polygon fill="none" points="23.2,10 13.6,10 13.6,12.7 14.2,12.7 14.2,10.8 22.6,10.8 22.6,16.4 23.2,16.4      "/>
					<g>
						<rect x="10.1" y="25.8" fill="#FFFFFF" width="8.2" height="0.7"/>
						<path fill="#FFFFFF" d="M24.5,16.4V8.6H12.2v4.1H8.2v16.5h12.3v-2.1h9.5V16.4H24.5z M13.6,10h9.6v6.4h-0.6v-5.6h-8.4v1.9h-0.6        V10z M20.5,15.3v-0.6h0.9v-1h-0.9v-0.6h0.9v-1h-2.7v0.6h-0.4v-0.6h-2.7v0.6h-0.6v-1.2h7v4.9h-1.5v-0.1h0.9v-1H20.5z         M19.1,27.1v0.7H9.5V14.1h2.7h1.4h0.6h0.7h4.2v2.3H16v1.2h-5.9v0.7H16V19h-5.9v0.7H16v0.7h-5.9V21H16v0.7h-5.9v0.7H16V23h-5.9        v0.7H16v0.7h-5.9v0.7H16l0,2H19.1z M28.4,25.5H17.6v-7.6h10.8V25.5z"/>
					</g>
				</g>
			</g>
		</g>
	</g>
	<g>
		<path fill="#FFFFFF" d="M20.1,21.8c0.1,0.1,0.2,0.1,0.3,0.2c0.1,0.1,0.1,0.2,0.1,0.3c0,0.2,0,0.3-0.1,0.6    c-0.1,0.2-0.2,0.5-0.2,0.8c0,0,0,0.1,0,0.1c0,0,0,0.1,0,0.1c0,0.1,0,0.2,0.1,0.2c0.1,0.1,0.2,0.1,0.3,0.1c0.1,0,0.1,0,0.1,0.1    c0,0,0,0.1,0,0.1c-0.1,0-0.3,0-0.4,0c-0.1,0-0.3,0-0.3-0.1c-0.1,0-0.2-0.1-0.2-0.2c-0.1-0.1-0.1-0.2-0.1-0.3c0,0,0-0.1,0-0.1    c0-0.1,0-0.1,0-0.2c0.1-0.2,0.1-0.4,0.2-0.6c0.1-0.2,0.1-0.4,0.1-0.5c0-0.1,0-0.1,0-0.2c0,0,0-0.1,0-0.1c0-0.1,0-0.2-0.1-0.3    c-0.1-0.1-0.2-0.1-0.4-0.1c0-0.2,0-0.2,0-0.2c0.1,0,0.2,0,0.3-0.1c0.1,0,0.1-0.1,0.2-0.1c0.1-0.1,0.1-0.1,0.1-0.2    c0-0.1,0.1-0.2,0.1-0.3c0-0.2,0.1-0.4,0.1-0.5c0-0.2,0-0.4,0-0.5c0-0.2,0-0.3,0.1-0.4c0.1-0.1,0.1-0.2,0.3-0.3    c0.1-0.1,0.2-0.1,0.4-0.1c0.2,0,0.3,0,0.5,0c0,0.1,0,0.2-0.1,0.2c0,0-0.1,0-0.2,0.1c-0.2,0-0.2,0.1-0.3,0.2c0,0.1-0.1,0.2-0.1,0.4    c0,0.2,0,0.4,0,0.6c0,0.2,0,0.3,0,0.5c0,0.1,0,0.2-0.1,0.3c0,0.1-0.1,0.2-0.1,0.2c-0.1,0.1-0.1,0.1-0.2,0.2    C20.3,21.7,20.2,21.7,20.1,21.8L20.1,21.8z"/>
		<path fill="#FFFFFF" d="M21.3,22c0-0.1,0-0.2,0.1-0.3c0.1-0.1,0.2-0.1,0.3-0.1c0.1,0,0.2,0,0.3,0.1c0.1,0.1,0.1,0.2,0.1,0.3    c0,0.1,0,0.2-0.1,0.3c-0.1,0.1-0.2,0.1-0.3,0.1c-0.1,0-0.2,0-0.3-0.1C21.3,22.2,21.3,22.1,21.3,22L21.3,22z"/>
		<path fill="#FFFFFF" d="M22.6,22c0-0.1,0-0.2,0.1-0.3c0.1-0.1,0.2-0.1,0.3-0.1c0.1,0,0.2,0,0.3,0.1c0.1,0.1,0.1,0.2,0.1,0.3    c0,0.1,0,0.2-0.1,0.3c-0.1,0.1-0.2,0.1-0.3,0.1c-0.1,0-0.2,0-0.3-0.1C22.6,22.2,22.6,22.1,22.6,22L22.6,22z"/>
		<path fill="#FFFFFF" d="M23.8,22c0-0.1,0-0.2,0.1-0.3c0.1-0.1,0.2-0.1,0.3-0.1c0.1,0,0.2,0,0.3,0.1c0.1,0.1,0.1,0.2,0.1,0.3    c0,0.1,0,0.2-0.1,0.3c-0.1,0.1-0.2,0.1-0.3,0.1c-0.1,0-0.2,0-0.3-0.1C23.9,22.2,23.8,22.1,23.8,22L23.8,22z"/>
		<path fill="#FFFFFF" d="M25.9,21.8c-0.1-0.1-0.2-0.1-0.3-0.2c-0.1-0.1-0.1-0.2-0.1-0.3c0-0.2,0-0.3,0.1-0.6    c0.1-0.2,0.1-0.5,0.2-0.8c0,0,0-0.1,0-0.1c0,0,0-0.1,0-0.1c0-0.1,0-0.2-0.1-0.2c-0.1-0.1-0.2-0.1-0.3-0.1c-0.1,0-0.1,0-0.1-0.1    c0,0,0-0.1,0-0.1c0.2,0,0.3,0,0.4,0c0.1,0,0.2,0,0.3,0.1c0.1,0,0.2,0.1,0.2,0.2c0.1,0.1,0.1,0.2,0.1,0.3c0,0,0,0.1,0,0.1    c0,0.1,0,0.1,0,0.1c-0.1,0.2-0.1,0.4-0.2,0.6c-0.1,0.2-0.1,0.4-0.1,0.5c0,0.1,0,0.1,0,0.2c0,0,0,0.1,0,0.1c0,0.1,0,0.2,0.1,0.3    c0.1,0.1,0.2,0.1,0.4,0.1c0,0.2,0,0.2,0,0.2c-0.1,0-0.2,0-0.3,0.1c-0.1,0-0.1,0.1-0.2,0.1c-0.1,0.1-0.1,0.1-0.1,0.2    c0,0.1-0.1,0.2-0.1,0.3c0,0.2-0.1,0.3-0.1,0.5s0,0.4,0,0.5s0,0.3-0.1,0.4c-0.1,0.1-0.2,0.2-0.3,0.3c-0.1,0.1-0.2,0.1-0.4,0.1    c-0.2,0-0.3,0-0.5,0c0-0.1,0-0.2,0.1-0.2c0,0,0.1,0,0.2-0.1c0.2,0,0.2-0.1,0.3-0.2c0.1-0.1,0.1-0.2,0.1-0.4c0-0.2,0-0.4,0-0.6    c0-0.2,0-0.3,0-0.5c0-0.1,0-0.2,0.1-0.3c0-0.1,0.1-0.2,0.1-0.2c0.1-0.1,0.1-0.1,0.2-0.2C25.7,21.9,25.8,21.9,25.9,21.8L25.9,21.8z    "/>
	</g>
</g>
<g id="Grid" display="none">
	<g display="inline">
		<g>
			<rect x="11.2" y="-1.6" fill="#D0D2D3" width="0.1" height="41.3"/>
			<rect x="8.1" y="-1.6" fill="#D0D2D3" width="0.1" height="41.3"/>
			<rect x="26.6" y="-1.6" fill="#D0D2D3" width="0.1" height="41.3"/>
			<rect x="29.7" y="-1.6" fill="#D0D2D3" width="0.1" height="41.3"/>
			<rect x="-1.7" y="11.3" fill="#D0D2D3" width="41.3" height="0.1"/>
			<rect x="-1.7" y="8.1" fill="#D0D2D3" width="41.3" height="0.1"/>
			<rect x="-1.7" y="26.6" fill="#D0D2D3" width="41.3" height="0.1"/>
			<rect x="-1.7" y="29.8" fill="#D0D2D3" width="41.3" height="0.1"/>
		</g>
		<g>
			<rect x="18.9" y="-1.6" fill="#D0D2D3" width="0.1" height="41.3"/>
			<rect x="37.1" y="-1.6" fill="#D0D2D3" width="0.1" height="41.3"/>
			<rect x="0.8" y="-1.6" fill="#D0D2D3" width="0.1" height="41.3"/>
			<rect x="-1.7" y="19" fill="#D0D2D3" width="41.3" height="0.1"/>
			<rect x="-1.7" y="37.1" fill="#D0D2D3" width="41.3" height="0.1"/>
			<rect x="-1.7" y="0.8" fill="#D0D2D3" width="41.3" height="0.1"/>
			
				<rect x="-10.2" y="19" transform="matrix(0.707 0.7072 -0.7072 0.707 18.9976 -7.8455)" fill="#D0D2D3" width="58.3" height="0.1"/>
			
				<rect x="18.9" y="-10.2" transform="matrix(0.7071 0.7071 -0.7071 0.7071 18.9941 -7.8455)" fill="#D0D2D3" width="0.1" height="58.3"/>
		</g>
		<g>
			<path fill="#929497" d="M19,26.7c-0.1,0-0.2,0-0.3,0l0-0.2c0.2,0,0.4,0,0.6,0l0,0.2C19.2,26.7,19.1,26.7,19,26.7z M18,26.6     c-0.2,0-0.4-0.1-0.6-0.1l0-0.2c0.2,0,0.4,0.1,0.6,0.1L18,26.6z M19.9,26.6l0-0.2c0.2,0,0.4-0.1,0.6-0.1l0,0.2     C20.3,26.6,20.1,26.6,19.9,26.6z M16.8,26.4c-0.2-0.1-0.4-0.1-0.6-0.2l0.1-0.2c0.2,0.1,0.4,0.1,0.6,0.2L16.8,26.4z M21.1,26.4     l-0.1-0.2c0.2-0.1,0.4-0.1,0.6-0.2l0.1,0.2C21.5,26.3,21.3,26.3,21.1,26.4z M15.7,26c-0.2-0.1-0.4-0.2-0.6-0.3l0.1-0.2     c0.2,0.1,0.4,0.2,0.5,0.3L15.7,26z M22.3,26l-0.1-0.2c0.2-0.1,0.4-0.2,0.5-0.3l0.1,0.2C22.6,25.8,22.5,25.9,22.3,26z M14.6,25.3     c-0.2-0.1-0.3-0.2-0.5-0.4l0.1-0.2c0.2,0.1,0.3,0.2,0.5,0.4L14.6,25.3z M23.3,25.3l-0.1-0.2c0.2-0.1,0.3-0.2,0.5-0.4l0.1,0.2     C23.7,25.1,23.5,25.2,23.3,25.3z M13.6,24.6c-0.1-0.1-0.3-0.3-0.4-0.4l0.2-0.1c0.1,0.2,0.3,0.3,0.4,0.4L13.6,24.6z M24.3,24.5     l-0.1-0.1c0.1-0.1,0.3-0.3,0.4-0.4l0.2,0.1C24.6,24.3,24.5,24.4,24.3,24.5z M12.8,23.6c-0.1-0.2-0.2-0.3-0.4-0.5l0.2-0.1     c0.1,0.2,0.2,0.3,0.3,0.5L12.8,23.6z M25.1,23.6L25,23.5c0.1-0.2,0.2-0.3,0.3-0.5l0.2,0.1C25.4,23.3,25.2,23.5,25.1,23.6z      M12.1,22.6C12,22.4,12,22.2,11.9,22l0.2-0.1c0.1,0.2,0.2,0.4,0.3,0.5L12.1,22.6z M25.8,22.6l-0.2-0.1c0.1-0.2,0.2-0.4,0.3-0.5     l0.2,0.1C26,22.2,25.9,22.4,25.8,22.6z M11.7,21.5c-0.1-0.2-0.1-0.4-0.2-0.6l0.2,0c0,0.2,0.1,0.4,0.2,0.6L11.7,21.5z M26.3,21.4     l-0.2-0.1c0.1-0.2,0.1-0.4,0.2-0.6l0.2,0C26.4,21,26.3,21.2,26.3,21.4z M11.4,20.2c0-0.2-0.1-0.4-0.1-0.6l0.2,0     c0,0.2,0,0.4,0.1,0.6L11.4,20.2z M26.6,20.2l-0.2,0c0-0.2,0.1-0.4,0.1-0.6l0.2,0C26.6,19.8,26.6,20,26.6,20.2z M11.5,19h-0.2v0     c0-0.2,0-0.4,0-0.6l0.2,0C11.5,18.6,11.5,18.8,11.5,19L11.5,19z M26.5,19c0-0.2,0-0.4,0-0.6l0.2,0c0,0.2,0,0.4,0,0.6L26.5,19z      M11.6,17.8l-0.2,0c0-0.2,0.1-0.4,0.1-0.6l0.2,0C11.6,17.4,11.6,17.6,11.6,17.8z M26.4,17.8c0-0.2-0.1-0.4-0.1-0.6l0.2,0     c0,0.2,0.1,0.4,0.1,0.6L26.4,17.8z M11.8,16.6l-0.2-0.1c0.1-0.2,0.1-0.4,0.2-0.6l0.2,0.1C12,16.2,11.9,16.4,11.8,16.6z      M26.1,16.6c-0.1-0.2-0.1-0.4-0.2-0.6L26,16c0.1,0.2,0.2,0.4,0.2,0.6L26.1,16.6z M12.3,15.5l-0.2-0.1c0.1-0.2,0.2-0.4,0.3-0.5     l0.2,0.1C12.5,15.2,12.4,15.3,12.3,15.5z M25.6,15.5c-0.1-0.2-0.2-0.4-0.3-0.5l0.2-0.1c0.1,0.2,0.2,0.4,0.3,0.5L25.6,15.5z      M13,14.5l-0.2-0.1c0.1-0.2,0.3-0.3,0.4-0.5l0.2,0.1C13.2,14.2,13.1,14.3,13,14.5z M25,14.5c-0.1-0.2-0.2-0.3-0.4-0.5l0.2-0.1     c0.1,0.2,0.3,0.3,0.4,0.5L25,14.5z M13.8,13.6l-0.1-0.1c0.1-0.1,0.3-0.3,0.5-0.4l0.1,0.2C14.1,13.3,13.9,13.4,13.8,13.6z      M24.1,13.6c-0.1-0.1-0.3-0.3-0.5-0.4l0.1-0.2c0.2,0.1,0.3,0.3,0.5,0.4L24.1,13.6z M14.7,12.8l-0.1-0.2c0.2-0.1,0.3-0.2,0.5-0.3     l0.1,0.2C15,12.6,14.9,12.7,14.7,12.8z M23.2,12.8c-0.2-0.1-0.3-0.2-0.5-0.3l0.1-0.2c0.2,0.1,0.4,0.2,0.5,0.3L23.2,12.8z      M15.7,12.2L15.6,12c0.2-0.1,0.4-0.2,0.6-0.2l0.1,0.2C16.1,12,15.9,12.1,15.7,12.2z M22.2,12.2C22,12.1,21.8,12,21.6,12l0.1-0.2     c0.2,0.1,0.4,0.2,0.6,0.2L22.2,12.2z M16.9,11.8l-0.1-0.2c0.2-0.1,0.4-0.1,0.6-0.1l0,0.2C17.3,11.7,17.1,11.7,16.9,11.8z      M21,11.8c-0.2-0.1-0.4-0.1-0.6-0.1l0-0.2c0.2,0,0.4,0.1,0.6,0.1L21,11.8z M18,11.5l0-0.2c0.2,0,0.4,0,0.6,0l0,0.2     C18.4,11.5,18.2,11.5,18,11.5z M19.9,11.5c-0.2,0-0.4,0-0.6,0l0-0.2c0.2,0,0.4,0,0.6,0L19.9,11.5z"/>
			<path fill="#929497" d="M19,29.9c-0.1,0-0.2,0-0.3,0l0-0.2c0.2,0,0.4,0,0.6,0l0,0.2C19.2,29.9,19.1,29.9,19,29.9z M18,29.8     c-0.2,0-0.4,0-0.6-0.1l0-0.2c0.2,0,0.4,0.1,0.6,0.1L18,29.8z M19.9,29.8l0-0.2c0.2,0,0.4,0,0.6-0.1l0,0.2     C20.3,29.8,20.1,29.8,19.9,29.8z M16.8,29.7c-0.2,0-0.4-0.1-0.6-0.1l0.1-0.2c0.2,0.1,0.4,0.1,0.6,0.1L16.8,29.7z M21.1,29.6     l0-0.2c0.2,0,0.4-0.1,0.6-0.1l0.1,0.2C21.5,29.6,21.3,29.6,21.1,29.6z M15.6,29.3c-0.2-0.1-0.4-0.1-0.6-0.2l0.1-0.2     c0.2,0.1,0.4,0.1,0.6,0.2L15.6,29.3z M22.3,29.3l-0.1-0.2c0.2-0.1,0.4-0.1,0.6-0.2l0.1,0.2C22.7,29.2,22.5,29.3,22.3,29.3z      M14.5,28.9c-0.2-0.1-0.4-0.2-0.6-0.3l0.1-0.2c0.2,0.1,0.4,0.2,0.5,0.3L14.5,28.9z M23.5,28.9l-0.1-0.2c0.2-0.1,0.4-0.2,0.5-0.3     l0.1,0.2C23.9,28.7,23.7,28.8,23.5,28.9z M13.4,28.3c-0.2-0.1-0.4-0.2-0.5-0.3l0.1-0.2c0.2,0.1,0.3,0.2,0.5,0.3L13.4,28.3z      M24.6,28.3l-0.1-0.2c0.2-0.1,0.3-0.2,0.5-0.3l0.1,0.2C24.9,28.1,24.8,28.2,24.6,28.3z M12.3,27.6c-0.2-0.1-0.3-0.3-0.5-0.4     l0.1-0.2c0.2,0.1,0.3,0.3,0.5,0.4L12.3,27.6z M25.6,27.6l-0.1-0.2c0.2-0.1,0.3-0.3,0.5-0.4l0.1,0.2     C25.9,27.3,25.8,27.5,25.6,27.6z M11.4,26.8c-0.1-0.1-0.3-0.3-0.4-0.4l0.2-0.1c0.1,0.1,0.3,0.3,0.4,0.4L11.4,26.8z M26.5,26.8     l-0.1-0.1c0.1-0.1,0.3-0.3,0.4-0.4l0.2,0.1C26.8,26.5,26.7,26.6,26.5,26.8z M10.6,25.9c-0.1-0.2-0.3-0.3-0.4-0.5l0.2-0.1     c0.1,0.2,0.2,0.3,0.4,0.5L10.6,25.9z M27.4,25.9l-0.2-0.1c0.1-0.2,0.3-0.3,0.4-0.5l0.2,0.1C27.6,25.5,27.5,25.7,27.4,25.9z      M9.8,24.9c-0.1-0.2-0.2-0.4-0.3-0.5l0.2-0.1c0.1,0.2,0.2,0.4,0.3,0.5L9.8,24.9z M28.1,24.9l-0.2-0.1c0.1-0.2,0.2-0.3,0.3-0.5     l0.2,0.1C28.3,24.5,28.2,24.7,28.1,24.9z M9.2,23.8C9.1,23.6,9,23.4,9,23.2l0.2-0.1c0.1,0.2,0.2,0.4,0.3,0.6L9.2,23.8z      M28.7,23.8l-0.2-0.1c0.1-0.2,0.2-0.4,0.3-0.6l0.2,0.1C28.9,23.4,28.8,23.6,28.7,23.8z M8.7,22.7c-0.1-0.2-0.1-0.4-0.2-0.6     L8.7,22c0.1,0.2,0.1,0.4,0.2,0.6L8.7,22.7z M29.2,22.6L29,22.6c0.1-0.2,0.1-0.4,0.2-0.6l0.2,0.1C29.3,22.2,29.3,22.4,29.2,22.6z      M8.4,21.5c0-0.2-0.1-0.4-0.1-0.6l0.2,0c0,0.2,0.1,0.4,0.1,0.6L8.4,21.5z M29.5,21.4l-0.2,0c0-0.2,0.1-0.4,0.1-0.6l0.2,0     C29.6,21,29.6,21.2,29.5,21.4z M8.2,20.3c0-0.2,0-0.4-0.1-0.6l0.2,0c0,0.2,0,0.4,0.1,0.6L8.2,20.3z M29.8,20.2l-0.2,0     c0-0.2,0-0.4,0.1-0.6l0.2,0C29.8,19.8,29.8,20,29.8,20.2z M8.3,19H8.1v0c0-0.2,0-0.4,0-0.6l0.2,0C8.3,18.6,8.3,18.8,8.3,19     L8.3,19z M29.6,19c0-0.2,0-0.4,0-0.6l0.2,0c0,0.2,0,0.4,0,0.6L29.6,19z M8.4,17.8l-0.2,0c0-0.2,0.1-0.4,0.1-0.6l0.2,0     C8.4,17.4,8.4,17.6,8.4,17.8z M29.5,17.8c0-0.2-0.1-0.4-0.1-0.6l0.2,0c0,0.2,0.1,0.4,0.1,0.6L29.5,17.8z M8.6,16.6l-0.2,0     c0-0.2,0.1-0.4,0.2-0.6L8.7,16C8.7,16.2,8.6,16.4,8.6,16.6z M29.3,16.6c0-0.2-0.1-0.4-0.2-0.6l0.2-0.1c0.1,0.2,0.1,0.4,0.2,0.6     L29.3,16.6z M8.9,15.4l-0.2-0.1c0.1-0.2,0.1-0.4,0.2-0.6l0.2,0.1C9.1,15,9,15.2,8.9,15.4z M29,15.4c-0.1-0.2-0.1-0.4-0.2-0.6     l0.2-0.1c0.1,0.2,0.2,0.4,0.2,0.6L29,15.4z M9.4,14.3l-0.2-0.1c0.1-0.2,0.2-0.4,0.3-0.5l0.2,0.1C9.6,13.9,9.5,14.1,9.4,14.3z      M28.5,14.3c-0.1-0.2-0.2-0.4-0.3-0.5l0.2-0.1c0.1,0.2,0.2,0.4,0.3,0.5L28.5,14.3z M10,13.2l-0.2-0.1c0.1-0.2,0.2-0.3,0.4-0.5     l0.2,0.1C10.2,12.9,10.1,13.1,10,13.2z M27.9,13.2c-0.1-0.2-0.2-0.3-0.3-0.5l0.2-0.1c0.1,0.2,0.2,0.3,0.4,0.5L27.9,13.2z      M10.7,12.2l-0.2-0.1c0.1-0.2,0.3-0.3,0.4-0.5l0.2,0.1C11,11.9,10.8,12.1,10.7,12.2z M27.2,12.2c-0.1-0.2-0.3-0.3-0.4-0.5     l0.2-0.1c0.1,0.2,0.3,0.3,0.4,0.5L27.2,12.2z M11.5,11.3l-0.1-0.1c0.1-0.1,0.3-0.3,0.5-0.4l0.1,0.2     C11.8,11.1,11.7,11.2,11.5,11.3z M26.4,11.3c-0.1-0.1-0.3-0.3-0.4-0.4l0.1-0.2c0.2,0.1,0.3,0.3,0.5,0.4L26.4,11.3z M12.4,10.6     l-0.1-0.2c0.2-0.1,0.3-0.2,0.5-0.4l0.1,0.2C12.8,10.3,12.6,10.4,12.4,10.6z M25.5,10.5c-0.2-0.1-0.3-0.2-0.5-0.4l0.1-0.2     c0.2,0.1,0.3,0.2,0.5,0.4L25.5,10.5z M13.4,9.9l-0.1-0.2c0.2-0.1,0.4-0.2,0.5-0.3L14,9.6C13.8,9.7,13.6,9.8,13.4,9.9z M24.5,9.9     c-0.2-0.1-0.4-0.2-0.5-0.3L24,9.4c0.2,0.1,0.4,0.2,0.5,0.3L24.5,9.9z M14.5,9.3l-0.1-0.2C14.6,9,14.8,8.9,15,8.9l0.1,0.2     C14.9,9.1,14.7,9.2,14.5,9.3z M23.4,9.3c-0.2-0.1-0.4-0.2-0.6-0.2l0.1-0.2c0.2,0.1,0.4,0.2,0.6,0.2L23.4,9.3z M15.7,8.9l-0.1-0.2     c0.2-0.1,0.4-0.1,0.6-0.2l0.1,0.2C16,8.7,15.8,8.8,15.7,8.9z M22.2,8.8c-0.2-0.1-0.4-0.1-0.6-0.2l0.1-0.2     c0.2,0.1,0.4,0.1,0.6,0.2L22.2,8.8z M16.8,8.5l0-0.2c0.2,0,0.4-0.1,0.6-0.1l0,0.2C17.2,8.5,17,8.5,16.8,8.5z M21.1,8.5     c-0.2,0-0.4-0.1-0.6-0.1l0-0.2c0.2,0,0.4,0.1,0.6,0.1L21.1,8.5z M18,8.4l0-0.2c0.2,0,0.4,0,0.6,0l0,0.2C18.4,8.3,18.2,8.4,18,8.4     z M19.9,8.4c-0.2,0-0.4,0-0.6,0l0-0.2c0.2,0,0.4,0,0.6,0L19.9,8.4z"/>
			<path fill="#929497" d="M19,37.1L19,37.1c-0.2,0-0.4,0-0.6,0l0-0.2c0.2,0,0.4,0,0.6,0h0V37.1z M19.6,37.1l0-0.2     c0.2,0,0.4,0,0.6,0l0,0.2C20,37.1,19.8,37.1,19.6,37.1z M17.7,37.1c-0.2,0-0.4,0-0.6-0.1l0-0.2c0.2,0,0.4,0,0.6,0.1L17.7,37.1z      M20.8,37l0-0.2c0.2,0,0.4,0,0.6-0.1l0,0.2C21.2,37,21,37,20.8,37z M16.5,37c-0.2,0-0.4-0.1-0.6-0.1l0-0.2c0.2,0,0.4,0.1,0.6,0.1     L16.5,37z M22.1,36.9l0-0.2c0.2,0,0.4-0.1,0.6-0.1l0,0.2C22.5,36.8,22.3,36.8,22.1,36.9z M15.3,36.8c-0.2,0-0.4-0.1-0.6-0.1     l0-0.2c0.2,0,0.4,0.1,0.6,0.1L15.3,36.8z M23.3,36.6l0-0.2c0.2,0,0.4-0.1,0.6-0.2l0.1,0.2C23.7,36.5,23.5,36.6,23.3,36.6z      M14.1,36.5c-0.2-0.1-0.4-0.1-0.6-0.2l0.1-0.2c0.2,0.1,0.4,0.1,0.6,0.2L14.1,36.5z M24.5,36.3l-0.1-0.2c0.2-0.1,0.4-0.1,0.6-0.2     l0.1,0.2C24.9,36.1,24.7,36.2,24.5,36.3z M12.9,36.1c-0.2-0.1-0.4-0.1-0.6-0.2l0.1-0.2c0.2,0.1,0.4,0.1,0.6,0.2L12.9,36.1z      M25.6,35.9l-0.1-0.2c0.2-0.1,0.4-0.2,0.6-0.2l0.1,0.2C26,35.7,25.8,35.8,25.6,35.9z M11.8,35.6c-0.2-0.1-0.4-0.2-0.6-0.3     l0.1-0.2c0.2,0.1,0.4,0.2,0.6,0.3L11.8,35.6z M26.8,35.4l-0.1-0.2c0.2-0.1,0.4-0.2,0.5-0.3l0.1,0.2     C27.1,35.2,26.9,35.3,26.8,35.4z M10.6,35.1c-0.2-0.1-0.4-0.2-0.5-0.3l0.1-0.2c0.2,0.1,0.4,0.2,0.5,0.3L10.6,35.1z M27.9,34.8     l-0.1-0.2c0.2-0.1,0.4-0.2,0.5-0.3l0.1,0.2C28.2,34.6,28,34.7,27.9,34.8z M9.6,34.5c-0.2-0.1-0.4-0.2-0.5-0.3L9.1,34     c0.2,0.1,0.3,0.2,0.5,0.3L9.6,34.5z M28.9,34.1L28.8,34c0.2-0.1,0.3-0.2,0.5-0.3l0.1,0.2C29.3,33.9,29.1,34,28.9,34.1z M8.5,33.8     c-0.2-0.1-0.3-0.2-0.5-0.4l0.1-0.2c0.2,0.1,0.3,0.2,0.5,0.4L8.5,33.8z M29.9,33.4l-0.1-0.2c0.2-0.1,0.3-0.2,0.5-0.4l0.1,0.2     C30.2,33.2,30.1,33.3,29.9,33.4z M7.5,33.1c-0.2-0.1-0.3-0.3-0.5-0.4l0.1-0.2c0.2,0.1,0.3,0.3,0.5,0.4L7.5,33.1z M30.9,32.7     l-0.1-0.2c0.2-0.1,0.3-0.3,0.5-0.4l0.1,0.2C31.2,32.4,31,32.5,30.9,32.7z M6.6,32.3c-0.1-0.1-0.3-0.3-0.4-0.4l0.1-0.1     c0.1,0.1,0.3,0.3,0.4,0.4L6.6,32.3z M31.8,31.8l-0.1-0.1c0.1-0.1,0.3-0.3,0.4-0.4l0.2,0.1C32.1,31.5,31.9,31.7,31.8,31.8z      M5.7,31.4c-0.1-0.1-0.3-0.3-0.4-0.5l0.2-0.1c0.1,0.2,0.3,0.3,0.4,0.5L5.7,31.4z M32.6,30.9l-0.2-0.1c0.1-0.2,0.3-0.3,0.4-0.5     l0.2,0.1C32.9,30.6,32.8,30.7,32.6,30.9z M4.9,30.4c-0.1-0.2-0.3-0.3-0.4-0.5l0.2-0.1c0.1,0.2,0.2,0.3,0.4,0.5L4.9,30.4z      M33.4,29.9l-0.2-0.1c0.1-0.2,0.2-0.3,0.4-0.5l0.2,0.1C33.7,29.6,33.5,29.8,33.4,29.9z M4.2,29.5C4,29.3,3.9,29.1,3.8,29L4,28.8     c0.1,0.2,0.2,0.3,0.3,0.5L4.2,29.5z M34.1,28.9l-0.2-0.1c0.1-0.2,0.2-0.3,0.3-0.5l0.2,0.1C34.3,28.6,34.2,28.8,34.1,28.9z      M3.5,28.4c-0.1-0.2-0.2-0.4-0.3-0.5l0.2-0.1c0.1,0.2,0.2,0.4,0.3,0.5L3.5,28.4z M34.8,27.9l-0.2-0.1c0.1-0.2,0.2-0.4,0.3-0.5     l0.2,0.1C35,27.5,34.9,27.7,34.8,27.9z M2.9,27.4c-0.1-0.2-0.2-0.4-0.3-0.6l0.2-0.1c0.1,0.2,0.2,0.4,0.3,0.5L2.9,27.4z      M35.3,26.8l-0.2-0.1c0.1-0.2,0.2-0.4,0.3-0.6l0.2,0.1C35.5,26.4,35.4,26.6,35.3,26.8z M2.3,26.2c-0.1-0.2-0.2-0.4-0.2-0.6     l0.2-0.1c0.1,0.2,0.2,0.4,0.2,0.6L2.3,26.2z M35.8,25.6l-0.2-0.1c0.1-0.2,0.1-0.4,0.2-0.6l0.2,0.1C36,25.2,35.9,25.4,35.8,25.6z      M1.9,25.1c-0.1-0.2-0.1-0.4-0.2-0.6l0.2-0.1C1.9,24.6,2,24.8,2.1,25L1.9,25.1z M36.2,24.5L36,24.4c0.1-0.2,0.1-0.4,0.2-0.6     l0.2,0.1C36.4,24.1,36.3,24.3,36.2,24.5z M1.5,23.9c-0.1-0.2-0.1-0.4-0.2-0.6l0.2,0c0,0.2,0.1,0.4,0.2,0.6L1.5,23.9z M36.6,23.3     l-0.2,0c0-0.2,0.1-0.4,0.1-0.6l0.2,0C36.7,22.9,36.6,23.1,36.6,23.3z M1.2,22.7c0-0.2-0.1-0.4-0.1-0.6l0.2,0     c0,0.2,0.1,0.4,0.1,0.6L1.2,22.7z M36.8,22.1l-0.2,0c0-0.2,0.1-0.4,0.1-0.6l0.2,0C36.9,21.6,36.9,21.9,36.8,22.1z M1,21.5     c0-0.2-0.1-0.4-0.1-0.6l0.2,0c0,0.2,0,0.4,0.1,0.6L1,21.5z M37,20.8l-0.2,0c0-0.2,0-0.4,0.1-0.6l0.2,0C37,20.4,37,20.6,37,20.8z      M0.9,20.3c0-0.2,0-0.4,0-0.6l0.2,0c0,0.2,0,0.4,0,0.6L0.9,20.3z M37.1,19.6l-0.2,0c0-0.2,0-0.4,0-0.6l0,0h0.2l0,0     C37.1,19.2,37.1,19.4,37.1,19.6z M1,19H0.8v0c0-0.2,0-0.4,0-0.6l0.2,0C1,18.6,1,18.8,1,19L1,19z M36.9,18.4c0-0.2,0-0.4,0-0.6     l0.2,0c0,0.2,0,0.4,0,0.6L36.9,18.4z M1.1,17.8l-0.2,0c0-0.2,0-0.4,0.1-0.6l0.2,0C1.1,17.4,1.1,17.6,1.1,17.8z M36.8,17.1     c0-0.2,0-0.4-0.1-0.6l0.2,0c0,0.2,0.1,0.4,0.1,0.6L36.8,17.1z M1.2,16.6l-0.2,0c0-0.2,0.1-0.4,0.1-0.6l0.2,0     C1.3,16.2,1.2,16.4,1.2,16.6z M36.6,15.9c0-0.2-0.1-0.4-0.1-0.6l0.2,0c0,0.2,0.1,0.4,0.1,0.6L36.6,15.9z M1.4,15.3l-0.2,0     c0-0.2,0.1-0.4,0.1-0.6l0.2,0C1.5,14.9,1.4,15.1,1.4,15.3z M36.4,14.7c0-0.2-0.1-0.4-0.2-0.6l0.2-0.1c0.1,0.2,0.1,0.4,0.2,0.6     L36.4,14.7z M1.7,14.2l-0.2-0.1c0.1-0.2,0.1-0.4,0.2-0.6l0.2,0.1C1.8,13.8,1.8,14,1.7,14.2z M36,13.6c-0.1-0.2-0.1-0.4-0.2-0.6     l0.2-0.1c0.1,0.2,0.1,0.4,0.2,0.6L36,13.6z M2.1,13l-0.2-0.1c0.1-0.2,0.1-0.4,0.2-0.6l0.2,0.1C2.2,12.6,2.1,12.8,2.1,13z      M35.6,12.4c-0.1-0.2-0.2-0.4-0.2-0.6l0.2-0.1c0.1,0.2,0.2,0.4,0.2,0.6L35.6,12.4z M2.5,11.9l-0.2-0.1c0.1-0.2,0.2-0.4,0.3-0.6     l0.2,0.1C2.7,11.5,2.6,11.7,2.5,11.9z M35.1,11.3c-0.1-0.2-0.2-0.4-0.3-0.5l0.2-0.1c0.1,0.2,0.2,0.4,0.3,0.6L35.1,11.3z M3,10.7     l-0.2-0.1c0.1-0.2,0.2-0.4,0.3-0.5l0.2,0.1C3.2,10.4,3.1,10.6,3,10.7z M34.6,10.2c-0.1-0.2-0.2-0.4-0.3-0.5l0.2-0.1     c0.1,0.2,0.2,0.4,0.3,0.5L34.6,10.2z M3.6,9.7L3.5,9.6C3.6,9.4,3.7,9.2,3.8,9L4,9.2C3.9,9.3,3.8,9.5,3.6,9.7z M33.9,9.2     c-0.1-0.2-0.2-0.3-0.3-0.5l0.2-0.1C33.9,8.7,34,8.9,34.1,9L33.9,9.2z M4.3,8.7L4.2,8.5C4.3,8.4,4.4,8.2,4.5,8l0.2,0.1     C4.6,8.3,4.4,8.5,4.3,8.7z M33.2,8.2C33.1,8,33,7.8,32.9,7.7L33,7.6c0.1,0.2,0.3,0.3,0.4,0.5L33.2,8.2z M5.1,7.7L4.9,7.5     C5,7.4,5.2,7.2,5.3,7.1l0.2,0.1C5.3,7.4,5.2,7.5,5.1,7.7z M32.5,7.2c-0.1-0.2-0.3-0.3-0.4-0.5l0.2-0.1c0.1,0.2,0.3,0.3,0.4,0.5     L32.5,7.2z M5.9,6.8L5.7,6.6C5.9,6.5,6,6.3,6.1,6.2l0.1,0.1C6.1,6.5,6,6.6,5.9,6.8z M31.6,6.3c-0.1-0.1-0.3-0.3-0.4-0.4l0.1-0.2     c0.1,0.1,0.3,0.3,0.4,0.4L31.6,6.3z M6.7,5.9L6.6,5.7C6.7,5.6,6.9,5.5,7,5.3l0.1,0.2C7,5.6,6.9,5.8,6.7,5.9z M30.7,5.5     c-0.2-0.1-0.3-0.3-0.5-0.4l0.1-0.2c0.2,0.1,0.3,0.3,0.5,0.4L30.7,5.5z M7.7,5.1L7.5,4.9C7.7,4.8,7.8,4.7,8,4.5l0.1,0.2     C8,4.8,7.8,5,7.7,5.1z M29.8,4.7c-0.2-0.1-0.3-0.2-0.5-0.4l0.1-0.2c0.2,0.1,0.3,0.2,0.5,0.4L29.8,4.7z M8.6,4.3L8.5,4.2     C8.7,4.1,8.8,3.9,9,3.8L9.1,4C9,4.1,8.8,4.2,8.6,4.3z M28.8,4c-0.2-0.1-0.3-0.2-0.5-0.3l0.1-0.2c0.2,0.1,0.4,0.2,0.5,0.3L28.8,4z      M9.6,3.7L9.5,3.5c0.2-0.1,0.4-0.2,0.5-0.3l0.1,0.2C10,3.5,9.8,3.6,9.6,3.7z M27.7,3.4c-0.2-0.1-0.4-0.2-0.5-0.3l0.1-0.2     c0.2,0.1,0.4,0.2,0.5,0.3L27.7,3.4z M10.7,3.1l-0.1-0.2c0.2-0.1,0.4-0.2,0.6-0.3l0.1,0.2C11.1,2.9,10.9,3,10.7,3.1z M26.7,2.8     c-0.2-0.1-0.4-0.2-0.6-0.3l0.1-0.2c0.2,0.1,0.4,0.2,0.6,0.3L26.7,2.8z M11.8,2.6l-0.1-0.2c0.2-0.1,0.4-0.2,0.6-0.2l0.1,0.2     C12.2,2.4,12,2.5,11.8,2.6z M25.5,2.3c-0.2-0.1-0.4-0.1-0.6-0.2L25,1.9C25.2,2,25.4,2,25.6,2.1L25.5,2.3z M12.9,2.1l-0.1-0.2     c0.2-0.1,0.4-0.1,0.6-0.2l0.1,0.2C13.3,2,13.1,2,12.9,2.1z M24.4,1.9c-0.2-0.1-0.4-0.1-0.6-0.2l0.1-0.2c0.2,0.1,0.4,0.1,0.6,0.2     L24.4,1.9z M14.1,1.7l-0.1-0.2c0.2-0.1,0.4-0.1,0.6-0.2l0,0.2C14.5,1.6,14.3,1.7,14.1,1.7z M23.2,1.6c-0.2,0-0.4-0.1-0.6-0.1     l0-0.2c0.2,0,0.4,0.1,0.6,0.1L23.2,1.6z M15.3,1.4l0-0.2c0.2,0,0.4-0.1,0.6-0.1l0,0.2C15.7,1.4,15.5,1.4,15.3,1.4z M22,1.3     c-0.2,0-0.4-0.1-0.6-0.1l0-0.2c0.2,0,0.4,0.1,0.6,0.1L22,1.3z M16.5,1.2l0-0.2C16.7,1,16.9,1,17.1,1l0,0.2     C16.9,1.2,16.7,1.2,16.5,1.2z M20.8,1.2c-0.2,0-0.4,0-0.6-0.1l0-0.2c0.2,0,0.4,0,0.6,0.1L20.8,1.2z M17.7,1.1l0-0.2     c0.2,0,0.4,0,0.6,0l0,0.2C18.1,1.1,17.9,1.1,17.7,1.1z M19.6,1.1c-0.2,0-0.4,0-0.6,0l0-0.2h0c0.2,0,0.4,0,0.6,0L19.6,1.1z"/>
		</g>
	</g>
</g>
</svg>